<?xml version="1.0" encoding="UTF-8"?>
<!-- Created with Grafika (https://www.grafika.cc/) -->
<svg xmlns="http://www.w3.org/2000/svg" xmlns:svg="http://www.w3.org/2000/svg" xmlns:xlink="http://www.w3.org/1999/xlink" width="2048" height="2047.99" viewBox="0 0 610.1 610.1" preserveAspectRatio="xMidYMid meet">
	<g id="Group 12">
		<rect x="-0" y="-0" width="610.1" height="610.1" rx="801" ry="801" style="fill:#000000;" />
		<path transform="matrix(2.126310348510742, 0, 0, 2.126310348510742, 292.0932922363281, 395.6269226074219)" d="M-60.82,-18.25 L-48.66,-18.25 L-48.66,-6.08 L-60.82,-6.08 L-60.82,-18.25 ZM-60.82,-30.41 L-48.66,-30.41 L-48.66,-18.25 L-60.82,-18.25 L-60.82,-30.41 ZM-60.82,-42.57 L-48.66,-42.57 L-48.66,-30.41 L-60.82,-30.41 L-60.82,-42.57 ZM-60.82,-54.73 L-48.66,-54.73 L-48.66,-42.57 L-60.82,-42.57 L-60.82,-54.73 ZM-48.66,-54.73 L-36.5,-54.73 L-36.5,-42.57 L-48.66,-42.57 L-48.66,-54.73 ZM-48.66,-42.57 L-36.5,-42.57 L-36.5,-30.41 L-48.66,-30.41 L-48.66,-42.57 ZM-48.66,-30.41 L-36.5,-30.41 L-36.5,-18.25 L-48.66,-18.25 L-48.66,-30.41 ZM-48.66,-18.25 L-36.5,-18.25 L-36.5,-6.08 L-48.66,-6.08 L-48.66,-18.25 ZM-48.66,-6.08 L-36.5,-6.08 L-36.5,6.08 L-48.66,6.08 L-48.66,-6.08 ZM-36.5,-6.08 L-24.34,-6.08 L-24.34,6.08 L-36.5,6.08 L-36.5,-6.08 ZM-36.5,6.08 L-24.34,6.08 L-24.34,18.24 L-36.5,18.24 L-36.5,6.08 ZM-48.66,6.08 L-36.5,6.08 L-36.5,18.24 L-48.66,18.24 L-48.66,6.08 ZM-24.34,6.08 L-12.18,6.08 L-12.18,18.24 L-24.34,18.24 L-24.34,6.08 ZM-24.34,18.24 L-12.18,18.24 L-12.18,30.4 L-24.34,30.4 L-24.34,18.24 ZM-12.18,18.24 L-0.02,18.24 L-0.02,30.4 L-12.18,30.4 L-12.18,18.24 ZM-0.02,18.24 L12.14,18.24 L12.14,30.4 L-0.02,30.4 L-0.02,18.24 ZM12.14,18.24 L24.3,18.24 L24.3,30.4 L12.14,30.4 L12.14,18.24 ZM24.3,18.24 L36.46,18.24 L36.46,30.4 L24.3,30.4 L24.3,18.24 ZM36.46,6.08 L48.62,6.08 L48.62,18.24 L36.46,18.24 L36.46,6.08 ZM48.62,6.08 L60.79,6.08 L60.79,18.24 L48.62,18.24 L48.62,6.08 ZM36.46,18.24 L48.62,18.24 L48.62,30.4 L36.46,30.4 L36.46,18.24 ZM60.85,-6.08 L73.01,-6.08 L73.01,6.08 L60.85,6.08 L60.85,-6.08 ZM-60.82,-66.89 L-48.66,-66.89 L-48.66,-54.73 L-60.82,-54.73 L-60.82,-66.89 ZM-48.66,-66.89 L-36.5,-66.89 L-36.5,-54.73 L-48.66,-54.73 L-48.66,-66.89 ZM-48.66,-79.05 L-36.5,-79.05 L-36.5,-66.89 L-48.66,-66.89 L-48.66,-79.05 ZM-48.66,-91.21 L-36.5,-91.21 L-36.5,-79.05 L-48.66,-79.05 L-48.66,-91.21 ZM-36.5,-103.37 L-24.34,-103.37 L-24.34,-91.21 L-36.5,-91.21 L-36.5,-103.37 ZM-24.34,-115.59 L-12.18,-115.59 L-12.18,-103.43 L-24.34,-103.43 L-24.34,-115.59 ZM-24.34,-66.89 L-12.18,-66.89 L-12.18,-54.73 L-24.34,-54.73 L-24.34,-66.89 ZM-12.18,-66.89 L-0.02,-66.89 L-0.02,-54.73 L-12.18,-54.73 L-12.18,-66.89 ZM-24.34,-42.57 L-12.18,-42.57 L-12.18,-30.41 L-24.34,-30.41 L-24.34,-42.57 ZM-12.18,-42.57 L-0.02,-42.57 L-0.02,-30.41 L-12.18,-30.41 L-12.18,-42.57 ZM-0.02,-42.57 L12.14,-42.57 L12.14,-30.41 L-0.02,-30.41 L-0.02,-42.57 ZM-0.02,-66.89 L12.14,-66.89 L12.14,-54.73 L-0.02,-54.73 L-0.02,-66.89 ZM-0.02,-54.73 L12.14,-54.73 L12.14,-42.57 L-0.02,-42.57 L-0.02,-54.73 ZM-0.02,-30.41 L12.14,-30.41 L12.14,-18.25 L-0.02,-18.25 L-0.02,-30.41 ZM12.14,-42.57 L24.3,-42.57 L24.3,-30.41 L12.14,-30.41 L12.14,-42.57 ZM12.14,-54.73 L24.3,-54.73 L24.3,-42.57 L12.14,-42.57 L12.14,-54.73 ZM12.14,-66.89 L24.3,-66.89 L24.3,-54.73 L12.14,-54.73 L12.14,-66.89 ZM12.14,-30.41 L24.3,-30.41 L24.3,-18.25 L12.14,-18.25 L12.14,-30.41 ZM-12.18,-6.08 L-0.02,-6.08 L-0.02,6.08 L-12.18,6.08 L-12.18,-6.08 ZM-0.02,-6.08 L12.14,-6.08 L12.14,6.08 L-0.02,6.08 L-0.02,-6.08 ZM-0.02,-18.25 L12.14,-18.25 L12.14,-6.08 L-0.02,-6.08 L-0.02,-18.25 ZM12.14,-18.25 L24.3,-18.25 L24.3,-6.08 L12.14,-6.08 L12.14,-18.25 ZM36.46,-18.25 L48.62,-18.25 L48.62,-6.08 L36.46,-6.08 L36.46,-18.25 ZM36.46,-30.41 L48.62,-30.41 L48.62,-18.25 L36.46,-18.25 L36.46,-30.41 ZM36.46,-42.57 L48.62,-42.57 L48.62,-30.41 L36.46,-30.41 L36.46,-42.57 ZM36.46,-54.73 L48.62,-54.73 L48.62,-42.57 L36.46,-42.57 L36.46,-54.73 ZM36.46,-66.89 L48.62,-66.89 L48.62,-54.73 L36.46,-54.73 L36.46,-66.89 ZM36.46,-79.05 L48.62,-79.05 L48.62,-66.89 L36.46,-66.89 L36.46,-79.05 ZM12.14,-79.05 L24.3,-79.05 L24.3,-66.89 L12.14,-66.89 L12.14,-79.05 ZM-0.02,-79.05 L12.14,-79.05 L12.14,-66.89 L-0.02,-66.89 L-0.02,-79.05 ZM-0.02,-91.21 L12.14,-91.21 L12.14,-79.05 L-0.02,-79.05 L-0.02,-91.21 ZM12.14,-91.21 L24.3,-91.21 L24.3,-79.05 L12.14,-79.05 L12.14,-91.21 ZM12.14,-103.37 L24.3,-103.37 L24.3,-91.21 L12.14,-91.21 L12.14,-103.37 ZM24.3,-115.59 L36.46,-115.59 L36.46,-103.43 L24.3,-103.43 L24.3,-115.59 ZM36.46,-115.59 L48.62,-115.59 L48.62,-103.43 L36.46,-103.43 L36.46,-115.59 ZM36.46,-103.37 L48.62,-103.37 L48.62,-91.21 L36.46,-91.21 L36.46,-103.37 ZM48.62,-103.37 L60.79,-103.37 L60.79,-91.21 L48.62,-91.21 L48.62,-103.37 ZM60.85,-115.59 L73.01,-115.59 L73.01,-103.43 L60.85,-103.43 L60.85,-115.59 Z" style="fill:#FFFFFF;" />
	</g>
</svg>